<?xml version="1.0" standalone="no"?><!DOCTYPE svg PUBLIC "-//W3C//DTD SVG 1.1//EN" "http://www.w3.org/Graphics/SVG/1.1/DTD/svg11.dtd"><svg t="1730168224708" class="icon" viewBox="0 0 1024 1024" version="1.1" xmlns="http://www.w3.org/2000/svg" p-id="4380" xmlns:xlink="http://www.w3.org/1999/xlink" width="200" height="200"><path d="M1004.416 502.186667c0 277.333333-224.853333 502.186667-502.186667 502.186666C224.853333 1004.373333 0 779.52 0 502.186667S224.853333 0 502.186667 0c277.376 0 502.229333 224.853333 502.229333 502.186667z m-67.328 0c0-240.213333-194.688-434.858667-434.858667-434.858667-240.213333 0-434.901333 194.688-434.901333 434.858667 0 240.213333 194.730667 434.901333 434.901333 434.901333s434.858667-194.730667 434.858667-434.901333zM476.202667 250.325333V333.653333H282.794667l1.066666 77.994667 192.341334 1.066667v210.517333l-192.341334 1.024v90.88l192.341334 1.066667v67.285333H204.8v-237.226667h198.741333v-67.285333H204.8v-228.693333h271.402667z m47.189333 0h271.36v228.693334H596.053333v67.285333h198.741334v237.226667h-271.402667v-67.328l192.298667-1.066667v-90.837333l-192.298667-1.066667V412.757333l192.298667-1.066666 1.066666-78.037334h-193.365333V250.325333z" fill="#C3282B" p-id="4381"></path></svg>